<svg width="1440" height="1227" viewBox="0 0 1440 1227" fill="none" xmlns="http://www.w3.org/2000/svg">
<rect width="1440" height="1227" fill="url(#paint0_linear_668_1685)"/>
<line x1="285.5" y1="2.18557e-08" x2="285.5" y2="1227" stroke="url(#paint1_linear_668_1685)" stroke-opacity="0.14" stroke-dasharray="8 8"/>
<line x1="343.501" y1="1.07022e-08" x2="343.501" y2="1227" stroke="url(#paint2_linear_668_1685)" stroke-opacity="0.14" stroke-dasharray="8 8"/>
<line x1="401.501" y1="2.18557e-08" x2="401.501" y2="1227" stroke="url(#paint3_linear_668_1685)" stroke-opacity="0.14" stroke-dasharray="8 8"/>
<line x1="459.501" y1="2.18557e-08" x2="459.501" y2="1227" stroke="url(#paint4_linear_668_1685)" stroke-opacity="0.14" stroke-dasharray="8 8"/>
<line x1="517.501" y1="2.18557e-08" x2="517.501" y2="1227" stroke="url(#paint5_linear_668_1685)" stroke-opacity="0.14" stroke-dasharray="8 8"/>
<line x1="575.502" y1="1.07022e-08" x2="575.502" y2="1227" stroke="url(#paint6_linear_668_1685)" stroke-opacity="0.14" stroke-dasharray="8 8"/>
<line x1="633.502" y1="1.07022e-08" x2="633.502" y2="1227" stroke="url(#paint7_linear_668_1685)" stroke-opacity="0.14" stroke-dasharray="8 8"/>
<line x1="691.503" y1="1.07022e-08" x2="691.503" y2="1227" stroke="url(#paint8_linear_668_1685)" stroke-opacity="0.14" stroke-dasharray="8 8"/>
<line x1="749.503" y1="1.07022e-08" x2="749.503" y2="1227" stroke="url(#paint9_linear_668_1685)" stroke-opacity="0.14" stroke-dasharray="8 8"/>
<line x1="807.503" y1="1.07022e-08" x2="807.503" y2="1227" stroke="url(#paint10_linear_668_1685)" stroke-opacity="0.14" stroke-dasharray="8 8"/>
<line x1="865.504" y1="1.07022e-08" x2="865.504" y2="1227" stroke="url(#paint11_linear_668_1685)" stroke-opacity="0.14" stroke-dasharray="8 8"/>
<line x1="923.504" y1="1.07022e-08" x2="923.504" y2="1227" stroke="url(#paint12_linear_668_1685)" stroke-opacity="0.14" stroke-dasharray="8 8"/>
<line x1="981.505" y1="1.07022e-08" x2="981.505" y2="1227" stroke="url(#paint13_linear_668_1685)" stroke-opacity="0.14" stroke-dasharray="8 8"/>
<line x1="1039.5" y1="1.07022e-08" x2="1039.5" y2="1227" stroke="url(#paint14_linear_668_1685)" stroke-opacity="0.14" stroke-dasharray="8 8"/>
<line x1="1097.51" y1="1.07022e-08" x2="1097.51" y2="1227" stroke="url(#paint15_linear_668_1685)" stroke-opacity="0.14" stroke-dasharray="8 8"/>
<line x1="1155.51" y1="1.07022e-08" x2="1155.51" y2="1227" stroke="url(#paint16_linear_668_1685)" stroke-opacity="0.14" stroke-dasharray="8 8"/>
<defs>
<linearGradient id="paint0_linear_668_1685" x1="-405" y1="394.21" x2="1272.1" y2="764.969" gradientUnits="userSpaceOnUse">
<stop offset="0.0292585" stop-color="#EDECF9"/>
<stop offset="0.489583" stop-color="#E8E7F4"/>
<stop offset="0.896263" stop-color="#EAF5FB"/>
</linearGradient>
<linearGradient id="paint1_linear_668_1685" x1="285" y1="613.5" x2="284" y2="613.5" gradientUnits="userSpaceOnUse">
<stop offset="0.0677083"/>
<stop offset="1" stop-opacity="0"/>
</linearGradient>
<linearGradient id="paint2_linear_668_1685" x1="343.001" y1="613.5" x2="342.001" y2="613.5" gradientUnits="userSpaceOnUse">
<stop offset="0.0677083"/>
<stop offset="1" stop-opacity="0"/>
</linearGradient>
<linearGradient id="paint3_linear_668_1685" x1="401.001" y1="613.5" x2="400.001" y2="613.5" gradientUnits="userSpaceOnUse">
<stop offset="0.0677083"/>
<stop offset="1" stop-opacity="0"/>
</linearGradient>
<linearGradient id="paint4_linear_668_1685" x1="459.001" y1="613.5" x2="458.001" y2="613.5" gradientUnits="userSpaceOnUse">
<stop offset="0.0677083"/>
<stop offset="1" stop-opacity="0"/>
</linearGradient>
<linearGradient id="paint5_linear_668_1685" x1="517.001" y1="613.5" x2="516.001" y2="613.5" gradientUnits="userSpaceOnUse">
<stop offset="0.0677083"/>
<stop offset="1" stop-opacity="0"/>
</linearGradient>
<linearGradient id="paint6_linear_668_1685" x1="575.002" y1="613.5" x2="574.002" y2="613.5" gradientUnits="userSpaceOnUse">
<stop offset="0.0677083"/>
<stop offset="1" stop-opacity="0"/>
</linearGradient>
<linearGradient id="paint7_linear_668_1685" x1="633.002" y1="613.5" x2="632.002" y2="613.5" gradientUnits="userSpaceOnUse">
<stop offset="0.0677083"/>
<stop offset="1" stop-opacity="0"/>
</linearGradient>
<linearGradient id="paint8_linear_668_1685" x1="691.003" y1="613.5" x2="690.003" y2="613.5" gradientUnits="userSpaceOnUse">
<stop offset="0.0677083"/>
<stop offset="1" stop-opacity="0"/>
</linearGradient>
<linearGradient id="paint9_linear_668_1685" x1="749.003" y1="613.5" x2="748.003" y2="613.5" gradientUnits="userSpaceOnUse">
<stop offset="0.0677083"/>
<stop offset="1" stop-opacity="0"/>
</linearGradient>
<linearGradient id="paint10_linear_668_1685" x1="807.003" y1="613.5" x2="806.003" y2="613.5" gradientUnits="userSpaceOnUse">
<stop offset="0.0677083"/>
<stop offset="1" stop-opacity="0"/>
</linearGradient>
<linearGradient id="paint11_linear_668_1685" x1="865.004" y1="613.5" x2="864.004" y2="613.5" gradientUnits="userSpaceOnUse">
<stop offset="0.0677083"/>
<stop offset="1" stop-opacity="0"/>
</linearGradient>
<linearGradient id="paint12_linear_668_1685" x1="923.004" y1="613.5" x2="922.004" y2="613.5" gradientUnits="userSpaceOnUse">
<stop offset="0.0677083"/>
<stop offset="1" stop-opacity="0"/>
</linearGradient>
<linearGradient id="paint13_linear_668_1685" x1="981.005" y1="613.5" x2="980.005" y2="613.5" gradientUnits="userSpaceOnUse">
<stop offset="0.0677083"/>
<stop offset="1" stop-opacity="0"/>
</linearGradient>
<linearGradient id="paint14_linear_668_1685" x1="1039" y1="613.5" x2="1038" y2="613.5" gradientUnits="userSpaceOnUse">
<stop offset="0.0677083"/>
<stop offset="1" stop-opacity="0"/>
</linearGradient>
<linearGradient id="paint15_linear_668_1685" x1="1097.01" y1="613.5" x2="1096.01" y2="613.5" gradientUnits="userSpaceOnUse">
<stop offset="0.0677083"/>
<stop offset="1" stop-opacity="0"/>
</linearGradient>
<linearGradient id="paint16_linear_668_1685" x1="1155.01" y1="613.5" x2="1154.01" y2="613.5" gradientUnits="userSpaceOnUse">
<stop offset="0.0677083"/>
<stop offset="1" stop-opacity="0"/>
</linearGradient>
</defs>
</svg>
